<?xml version="1.0" encoding="UTF-8" standalone="no"?>
<!-- Created with Inkscape (http://www.inkscape.org/) -->

<svg
   width="896px"
   height="512px"
   viewBox="0 0 896 512"
   version="1.1"
   id="SVGRoot"
   sodipodi:docname="version.svg"
   inkscape:version="1.2.2 (1:1.2.2+202212051552+b0a8486541)"
   xmlns:inkscape="http://www.inkscape.org/namespaces/inkscape"
   xmlns:sodipodi="http://sodipodi.sourceforge.net/DTD/sodipodi-0.dtd"
   xmlns="http://www.w3.org/2000/svg"
   xmlns:svg="http://www.w3.org/2000/svg">
  <sodipodi:namedview
     id="namedview286"
     pagecolor="#ffffff"
     bordercolor="#000000"
     borderopacity="0.25"
     inkscape:showpageshadow="2"
     inkscape:pageopacity="0.0"
     inkscape:pagecheckerboard="0"
     inkscape:deskcolor="#d1d1d1"
     inkscape:document-units="px"
     showgrid="false"
     inkscape:zoom="0.457453"
     inkscape:cx="639.40995"
     inkscape:cy="738.87372"
     inkscape:window-width="1452"
     inkscape:window-height="1655"
     inkscape:window-x="1106"
     inkscape:window-y="138"
     inkscape:window-maximized="0"
     inkscape:current-layer="layer1"
     showguides="true">
    <sodipodi:guide
       position="852.5466,57.308482"
       orientation="0,-1"
       id="guide1313"
       inkscape:locked="false" />
  </sodipodi:namedview>
  <defs
     id="defs281" />
  <g
     inkscape:label="Layer 1"
     inkscape:groupmode="layer"
     id="layer1">
    <path
       d="m 260.08928,426.17424 c 0,15.82413 -12.83304,28.65718 -28.65718,28.65718 H 59.488961 c -15.824141,0 -28.657188,-12.83305 -28.657188,-28.65718 0,-15.82415 12.833047,-28.65719 28.657188,-28.65719 H 116.80334 V 135.8411 l -41.418595,27.58254 c -13.191262,8.86582 -30.949763,5.19412 -39.73946,-7.88072 -8.773577,-13.1644 -5.21928,-30.98559 7.947892,-39.76186 L 129.56475,58.466689 c 8.80134,-5.863081 20.10481,-6.436225 29.40944,-1.427486 9.32254,4.982768 15.14353,14.699346 15.14353,25.257729 V 397.526 h 57.31438 c 15.851,-0.009 28.65718,12.79722 28.65718,28.64824 z"
       id="path678"
       style="stroke-width:0.895537" />
    <path
       d="m 420.68878,53.517756 c -79.00429,0 -143.28594,64.281654 -143.28594,143.285944 0,76.63111 60.63682,138.8978 136.3903,142.56951 l -57.89647,68.11455 c -10.27181,12.04497 -8.78701,30.14378 3.27408,40.37977 5.37322,4.58963 11.98229,6.82399 18.55553,6.82399 8.11536,0 16.1734,-3.42364 21.8332,-10.10166 130.29527,-153.31595 164.41524,-180.98805 164.41524,-247.79512 0,-78.98637 -64.29957,-143.276984 -143.28594,-143.276984 z m 0,229.248554 c -47.40974,0 -85.97157,-38.56183 -85.97157,-85.16559 0,-46.60375 38.56183,-85.97156 85.97157,-85.97156 47.40973,0 85.97156,38.56183 85.97156,85.97156 0,47.40974 -38.59765,85.16559 -85.97156,85.16559 z"
       id="path803"
       style="stroke-width:0.895537" />
    <path
       d="m 864.5466,332.89847 c 0,67.14737 -54.64567,121.79305 -121.79305,121.79305 h -72.00118 c -41.49919,0 -78.18935,-26.44521 -90.5388,-65.80407 -5.00964,-15.01816 3.12005,-31.23633 18.13462,-36.24239 15.00025,-5.02306 31.24529,3.12005 36.24239,18.13463 5.30337,15.91369 20.13167,26.59745 36.923,26.59745 h 71.23997 c 35.55283,0 64.47868,-28.92585 64.47868,-64.47867 0,-35.55279 -28.92585,-64.47864 -64.47868,-64.47864 h -93.13586 c -11.82109,0 -22.4332,-7.24847 -26.71387,-18.27791 -4.28067,-11.00615 -1.35226,-23.54367 7.35236,-31.51395 L 747.92976,110.8053 H 606.63191 c -15.82414,0 -28.65719,-12.833042 -28.65719,-28.657182 0,-15.824141 12.83305,-28.657188 28.65719,-28.657188 h 214.92891 c 11.82109,0 22.43321,7.248477 26.71387,18.277913 4.28157,11.015106 1.35764,23.525765 -7.34609,31.513957 L 723.25502,211.10546 h 19.49853 c 66.3593,0 121.79305,54.62776 121.79305,121.79301 z"
       id="path982"
       style="stroke-width:0.895537" />
    <path
       d="m 334.89884,426.62294 c 0,15.87848 -12.86899,28.74746 -28.74747,28.74746 -15.87849,0 -28.74746,-12.86898 -28.74746,-28.74746 0,-15.8785 12.86897,-28.74747 28.74746,-28.74747 15.87848,0 28.74747,12.86897 28.74747,28.74747 z"
       id="path1134"
       style="stroke-width:0.112295" />
    <path
       d="m 561.60359,426.62294 c 0,15.87848 -12.86899,28.74746 -28.74747,28.74746 -15.87849,0 -28.74746,-12.86898 -28.74746,-28.74746 0,-15.8785 12.86897,-28.74747 28.74746,-28.74747 15.87848,0 28.74747,12.86897 28.74747,28.74747 z"
       id="path1134-5"
       style="stroke-width:0.112295" />
  </g>
</svg>
