<?xml version="1.0" encoding="UTF-8" standalone="no"?>
<!-- Created with Inkscape (http://www.inkscape.org/) -->

<svg
   width="896px"
   height="512px"
   viewBox="0 0 896 512"
   version="1.1"
   id="SVGRoot"
   sodipodi:docname="cloud_container (copy).svg"
   inkscape:version="1.2.2 (1:1.2.2+202212051552+b0a8486541)"
   xmlns:inkscape="http://www.inkscape.org/namespaces/inkscape"
   xmlns:sodipodi="http://sodipodi.sourceforge.net/DTD/sodipodi-0.dtd"
   xmlns="http://www.w3.org/2000/svg"
   xmlns:svg="http://www.w3.org/2000/svg">
  <sodipodi:namedview
     id="namedview746"
     pagecolor="#ffffff"
     bordercolor="#000000"
     borderopacity="0.25"
     inkscape:showpageshadow="2"
     inkscape:pageopacity="0.0"
     inkscape:pagecheckerboard="0"
     inkscape:deskcolor="#d1d1d1"
     inkscape:document-units="px"
     showgrid="false"
     inkscape:zoom="0.457453"
     inkscape:cx="488.57478"
     inkscape:cy="361.7858"
     inkscape:window-width="1452"
     inkscape:window-height="1230"
     inkscape:window-x="1644"
     inkscape:window-y="103"
     inkscape:window-maximized="0"
     inkscape:current-layer="layer1" />
  <defs
     id="defs741" />
  <g
     inkscape:label="Layer 1"
     inkscape:groupmode="layer"
     id="layer1">
    <path
       d="M 509.30582,77.749297 462,172.45425 H 656.07519 V 53.023372 H 549.42714 c -16.98159,0 -32.47028,9.610455 -40.12132,24.725925 z m 176.62709,94.704953 h 194.0752 L 832.70228,77.749297 C 825.05123,62.633827 809.56253,53.023372 792.58096,53.023372 H 685.93291 Z m 194.0752,29.85773 H 462 v 209.00405 c 0,32.93681 26.77865,59.71545 59.71544,59.71545 h 298.57721 c 32.93681,0 59.71546,-26.77865 59.71546,-59.71545 z"
       id="path2"
       style="stroke-width:0.933055" />
    <path
       d="m 230.99596,53.023372 c -115.4421,0 -209.004062,93.561968 -209.004062,209.004058 0,115.44209 93.561962,209.00405 209.004062,209.00405 C 346.43804,471.03148 440,377.46952 440,262.02743 440,146.58534 346.43804,53.023372 230.99596,53.023372 Z m 0,65.313778 c 18.03476,0 32.65687,14.62211 32.65687,32.65688 0,18.03476 -14.61396,32.65688 -32.65687,32.65688 -18.04293,0 -32.65689,-14.61396 -32.65689,-32.65688 0,-18.04293 14.61396,-32.65688 32.65689,-32.65688 z m 96.82765,110.29861 -48.41383,13.79753 c -3.02076,0.89807 -6.12316,1.30629 -9.22556,1.95942 v 50.87943 l 25.01515,71.3063 c 3.58492,10.20528 -1.78632,21.38209 -11.99323,24.97435 -2.16352,0.77561 -4.36786,1.10218 -6.49056,1.10218 -8.08747,0 -15.66714,-5.05203 -18.48379,-13.11174 L 237.12728,321.863 c -2.09168,-5.71658 -10.17262,-5.71658 -12.27083,0 l -21.10451,57.68023 c -2.80033,8.04992 -10.39304,13.11174 -18.47562,13.11174 -2.15619,0 -4.33684,-0.3572 -6.493,-1.09728 -10.20529,-3.59716 -15.57735,-14.76908 -11.99326,-24.97436 l 25.01762,-71.32752 v -50.8631 c -3.1024,-0.65313 -6.2048,-1.06135 -9.22556,-1.95942 l -48.41383,-13.79753 c -10.36855,-3.02076 -16.41007,-13.79752 -13.47096,-24.24773 2.93912,-10.4502 13.87917,-16.49173 24.24773,-13.47096 l 48.37301,13.83019 c 24.63145,7.04 50.74064,7.04 75.36391,0 l 48.37301,-13.83019 c 10.36857,-3.08689 21.24331,3.03627 24.22325,13.44647 2.95544,10.4747 -3.08608,21.25146 -13.45463,24.27222 z"
       id="path235"
       style="stroke-width:0.816422" />
  </g>
</svg>
