<?xml version="1.0" encoding="UTF-8" standalone="no"?>
<!-- Created with Inkscape (http://www.inkscape.org/) -->

<svg
   width="896px"
   height="512px"
   viewBox="0 0 896 512"
   version="1.1"
   id="SVGRoot"
   sodipodi:docname="example_data_code.svg"
   inkscape:version="1.2.2 (1:1.2.2+202212051552+b0a8486541)"
   xmlns:inkscape="http://www.inkscape.org/namespaces/inkscape"
   xmlns:sodipodi="http://sodipodi.sourceforge.net/DTD/sodipodi-0.dtd"
   xmlns="http://www.w3.org/2000/svg"
   xmlns:svg="http://www.w3.org/2000/svg">
  <sodipodi:namedview
     id="namedview746"
     pagecolor="#ffffff"
     bordercolor="#000000"
     borderopacity="0.25"
     inkscape:showpageshadow="2"
     inkscape:pageopacity="0.0"
     inkscape:pagecheckerboard="0"
     inkscape:deskcolor="#d1d1d1"
     inkscape:document-units="px"
     showgrid="false"
     inkscape:zoom="0.457453"
     inkscape:cx="488.57478"
     inkscape:cy="365.06483"
     inkscape:window-width="1452"
     inkscape:window-height="1231"
     inkscape:window-x="408"
     inkscape:window-y="27"
     inkscape:window-maximized="0"
     inkscape:current-layer="layer1"
     showguides="true">
    <sodipodi:guide
       position="469.99364,24.518226"
       orientation="0,-1"
       id="guide593"
       inkscape:locked="false" />
  </sodipodi:namedview>
  <defs
     id="defs741" />
  <g
     inkscape:label="Layer 1"
     inkscape:groupmode="layer"
     id="layer1">
    <path
       d="M 794.86719,119.93413 729.34217,54.400332 C 718.74473,43.866109 704.43336,37.946645 689.59519,37.946645 H 530.3263 c -31.03724,0 -56.19189,25.15465 -56.19189,56.19189 l 0.006,337.151335 c 0,31.02846 25.15465,56.19189 56.19189,56.19189 h 224.76185 c 30.90554,0 56.19189,-25.28635 56.19189,-56.19189 V 159.63721 c 0,-14.83817 -5.88259,-29.14954 -16.41857,-39.70308 z m -25.72535,311.35574 c 0,7.758 -6.28998,14.04798 -14.04798,14.04798 h -224.75 c -7.75975,0 -14.04797,-6.28998 -14.04797,-14.04798 l -0.0176,-337.037196 c 0,-7.757993 6.28998,-14.047972 14.04797,-14.047972 h 140.47977 v 70.125728 c 0,15.51423 12.58171,28.09594 28.09594,28.09594 h 69.44967 v 252.8635 z M 663.16744,294.32215 c -4.10903,0 -7.94676,2.05452 -10.22868,5.47344 l -34.81263,52.29885 -10.25502,-15.39131 c -2.30036,-3.48565 -6.16355,-5.50505 -10.20234,-5.50505 -4.11079,0 -7.94852,2.05451 -10.22868,5.47344 l -40.97618,61.45988 c -2.51547,3.77276 -2.74901,8.62194 -0.61047,12.61684 2.11185,4.03528 6.28234,6.49367 10.02261,6.49367 h 172.08767 c 4.5331,0 8.69832,-2.49703 10.83449,-6.4928 2.13881,-3.99577 1.90526,-8.84144 -0.61047,-12.61683 l -65.56013,-98.33581 c -1.47038,-3.45492 -5.33358,-5.47432 -9.46017,-5.47432 z m -76.64925,-3.51199 c 15.51423,0 28.09595,-12.58173 28.09595,-28.09596 0,-15.51423 -12.55538,-28.09594 -28.09595,-28.09594 -15.54057,0 -28.09594,12.55538 -28.09594,28.09594 0,15.54057 12.55537,28.09596 28.09594,28.09596 z"
       id="path181"
       style="stroke-width:0.877998" />
    <path
       d="m 207.64356,264.29461 c -6.85893,-6.85892 -17.97263,-6.85892 -24.8298,0 l -42.14391,42.14392 c -6.85893,6.85892 -6.85893,17.99896 0,24.85613 l 42.14391,42.14392 c 3.49444,3.50321 7.97223,5.17141 12.45002,5.17141 4.47779,0 8.98192,-1.70156 12.4149,-5.13103 6.85892,-6.85892 6.85892,-17.99896 0,-24.85613 l -29.71147,-29.71673 29.72903,-29.71146 c 6.0933,-6.90107 6.0933,-17.96384 -0.0527,-24.90003 z M 386.05285,119.93412 320.5278,54.400332 C 309.93036,43.866109 295.61898,37.946645 280.78081,37.946645 H 121.51192 c -31.037244,0 -56.191894,25.15465 -56.191894,56.191889 l 0.005,337.151346 c 0,31.02846 25.15465,56.19189 56.191894,56.19189 h 224.76186 c 30.90558,0 56.19193,-25.28635 56.19193,-56.19189 V 159.63721 c 0,-14.83817 -5.88259,-29.14954 -16.41857,-39.70309 z m -25.72544,311.35576 c 0,7.758 -6.28993,14.04798 -14.04792,14.04798 H 121.52948 c -7.75975,0 -14.04797,-6.28998 -14.04797,-14.04798 l -0.0176,-337.037206 c 0,-7.757993 6.28998,-14.047972 14.04797,-14.047972 h 140.47973 v 70.125728 c 0,15.51423 12.58172,28.09595 28.09594,28.09595 h 69.44971 v 252.8635 z M 260.14785,264.29461 c -6.85892,6.85892 -6.85892,17.99896 0,24.85613 l 29.67635,29.75536 -29.72903,29.71147 c -6.85892,6.85892 -6.85892,17.99896 0,24.85613 3.47688,3.46809 7.95467,5.13629 12.43246,5.13629 4.47779,0 8.98192,-1.70156 12.41489,-5.13103 l 42.14392,-42.14391 c 6.85893,-6.85893 6.85893,-17.99897 0,-24.85613 L 284.94252,264.335 c -6.8835,-6.88878 -17.94628,-6.88878 -24.79467,-0.0404 z"
       id="path441"
       style="stroke-width:0.877998" />
  </g>
</svg>
