<?xml version="1.0" encoding="UTF-8" standalone="no"?>
<svg
   viewBox="0 0 448 512"
   version="1.1"
   id="svg4"
   sodipodi:docname="box-solid.svg"
   inkscape:version="1.2.2 (1:1.2.2+202212051552+b0a8486541)"
   xmlns:inkscape="http://www.inkscape.org/namespaces/inkscape"
   xmlns:sodipodi="http://sodipodi.sourceforge.net/DTD/sodipodi-0.dtd"
   xmlns="http://www.w3.org/2000/svg"
   xmlns:svg="http://www.w3.org/2000/svg">
  <defs
     id="defs8" />
  <sodipodi:namedview
     id="namedview6"
     pagecolor="#ffffff"
     bordercolor="#000000"
     borderopacity="0.25"
     inkscape:showpageshadow="2"
     inkscape:pageopacity="0.0"
     inkscape:pagecheckerboard="0"
     inkscape:deskcolor="#d1d1d1"
     showgrid="false"
     inkscape:zoom="0.70917838"
     inkscape:cx="231.95856"
     inkscape:cy="554.86745"
     inkscape:window-width="1452"
     inkscape:window-height="1230"
     inkscape:window-x="572"
     inkscape:window-y="87"
     inkscape:window-maximized="0"
     inkscape:current-layer="svg4" />
  <!--! Font Awesome Pro 6.2.0 by @fontawesome - https://fontawesome.com License - https://fontawesome.com/license (Commercial License) Copyright 2022 Fonticons, Inc. -->
  <path
     d="m 110.52255,195.0765 c 0,-7.30678 5.9156,-13.21 13.21,-13.21 h 22.56433 c 5.0941,-11.68259 16.7354,-19.81499 30.27565,-19.81499 13.54025,0 24.81002,8.1324 30.25914,19.81499 h 101.8408 c 7.30678,0 13.21,5.90322 13.21,13.21 0,7.30678 -5.90322,13.20999 -13.21,13.20999 h -101.8408 c -5.44912,11.68259 -16.71889,19.81499 -30.25914,19.81499 -13.54025,0 -25.18155,-8.1324 -30.27565,-19.81499 h -22.56433 c -7.2944,0 -13.21,-5.90321 -13.21,-13.20999 z m 79.25998,0 c 0,-7.30678 -5.90323,-13.21 -13.21,-13.21 -7.30677,0 -13.21,5.90322 -13.21,13.21 0,7.30678 5.90323,13.20999 13.21,13.20999 7.30677,0 13.21,-5.90321 13.21,-13.20999 z m 66.04996,-99.074963 c 13.54025,0 24.81003,8.132403 30.25915,19.815003 h 22.58083 c 7.30678,0 13.21,5.9032 13.21,13.20998 0,7.30678 -5.90322,13.20999 -13.21,13.20999 h -22.58083 c -5.44912,11.68259 -16.7189,19.815 -30.25915,19.815 -13.54024,0 -25.18154,-8.13241 -30.25914,-19.815 h -101.8408 c -7.2944,0 -13.21,-5.90321 -13.21,-13.20999 0,-7.30678 5.9156,-13.20998 13.21,-13.20998 h 101.8408 c 5.0776,-11.6826 16.7189,-19.815003 30.25914,-19.815003 z m 13.21,33.024983 c 0,-7.30678 -5.90322,-13.20998 -13.21,-13.20998 -7.30678,0 -13.20999,5.9032 -13.20999,13.20998 0,7.30678 5.90321,13.20999 13.20999,13.20999 7.30678,0 13.21,-5.90321 13.21,-13.20999 z m 39.62998,-79.259961 c 7.30678,0 13.21,5.915602 13.21,13.209996 0,7.306777 -5.90322,13.209994 -13.21,13.209994 h -88.63081 c -5.44912,11.682588 -16.71889,19.814988 -30.25913,19.814988 -13.54025,0 -25.18156,-8.1324 -30.25915,-19.814988 h -35.79083 c -7.2944,0 -13.21,-5.903217 -13.21,-13.209994 0,-7.294394 5.9156,-13.209996 13.21,-13.209996 h 35.79083 c 5.07759,-11.661947 16.7189,-19.814991 30.25915,-19.814991 13.54024,0 24.81001,8.153044 30.25913,19.814991 z M 176.57253,62.976555 c 0,7.306777 5.90322,13.209994 13.21,13.209994 7.30677,0 13.20999,-5.903217 13.20999,-13.209994 0,-7.294394 -5.90322,-13.209996 -13.20999,-13.209996 -7.30678,0 -13.21,5.915602 -13.21,13.209996 z"
     id="path413"
     style="stroke-width:0.412812" />
  <path
     d="m 5.7148003,436.61086 c 0,-7.30678 5.9155997,-13.21 13.2099927,-13.21 h 22.564325 c 5.094103,-11.68259 16.735408,-19.81499 30.27565,-19.81499 13.540248,0 24.810021,8.1324 30.259142,19.81499 h 101.8408 c 7.30678,0 13.21,5.90322 13.21,13.21 0,7.30678 -5.90322,13.20999 -13.21,13.20999 h -101.8408 c -5.449121,11.68259 -16.718894,19.81499 -30.259142,19.81499 -13.540242,0 -25.181547,-8.1324 -30.27565,-19.81499 H 18.924793 c -7.294393,0 -13.2099927,-5.90321 -13.2099927,-13.20999 z m 79.2599657,0 c 0,-7.30678 -5.90322,-13.21 -13.209998,-13.21 -7.30677,0 -13.209992,5.90322 -13.209992,13.21 0,7.30678 5.903222,13.20999 13.209992,13.20999 7.306778,0 13.209998,-5.90321 13.209998,-13.20999 z m 66.049964,-99.07497 c 13.54025,0 24.81003,8.1324 30.25915,19.815 h 22.58083 c 7.30678,0 13.21,5.90321 13.21,13.20999 0,7.30678 -5.90322,13.20999 -13.21,13.20999 h -22.58083 c -5.44912,11.68259 -16.7189,19.815 -30.25915,19.815 -13.54024,0 -25.18154,-8.13241 -30.25914,-19.815 H 18.924793 c -7.294393,0 -13.2099927,-5.90321 -13.2099927,-13.20999 0,-7.30678 5.9155997,-13.20999 13.2099927,-13.20999 H 120.76559 c 5.0776,-11.6826 16.7189,-19.815 30.25914,-19.815 z m 13.21,33.02499 c 0,-7.30678 -5.90322,-13.20999 -13.21,-13.20999 -7.30677,0 -13.20999,5.90321 -13.20999,13.20999 0,7.30678 5.90322,13.20999 13.20999,13.20999 7.30678,0 13.21,-5.90321 13.21,-13.20999 z m 39.62998,-79.25996 c 7.30678,0 13.21,5.91559 13.21,13.20999 0,7.30678 -5.90322,13.20999 -13.21,13.20999 h -88.6308 c -5.44913,11.68259 -16.718901,19.81499 -30.259144,19.81499 -13.54024,0 -25.181554,-8.1324 -30.259146,-19.81499 H 18.924793 c -7.294393,0 -13.2099927,-5.90321 -13.2099927,-13.20999 0,-7.2944 5.9155997,-13.20999 13.2099927,-13.20999 H 54.71562 c 5.077592,-11.66195 16.718906,-19.815 30.259146,-19.815 13.540243,0 24.810014,8.15305 30.259144,19.815 z M 71.764768,304.51091 c 0,7.30678 5.903221,13.20999 13.209998,13.20999 7.306779,0 13.209993,-5.90321 13.209993,-13.20999 0,-7.2944 -5.903214,-13.20999 -13.209993,-13.20999 -7.306777,0 -13.209998,5.91559 -13.209998,13.20999 z"
     id="path413-6"
     style="stroke-width:0.412812" />
  <path
     d="m 229.87557,434.31704 c 0,-7.30678 5.9156,-13.21 13.20999,-13.21 h 22.56433 c 5.0941,-11.68259 16.7354,-19.81499 30.27565,-19.81499 13.54025,0 24.81002,8.1324 30.25914,19.81499 h 101.8408 c 7.30678,0 13.21,5.90322 13.21,13.21 0,7.30677 -5.90322,13.20999 -13.21,13.20999 h -101.8408 c -5.44912,11.68259 -16.71889,19.81498 -30.25914,19.81498 -13.54025,0 -25.18155,-8.13239 -30.27565,-19.81498 h -22.56433 c -7.29439,0 -13.20999,-5.90322 -13.20999,-13.20999 z m 79.25997,0 c 0,-7.30678 -5.90322,-13.21 -13.21,-13.21 -7.30677,0 -13.20999,5.90322 -13.20999,13.21 0,7.30677 5.90322,13.20999 13.20999,13.20999 7.30678,0 13.21,-5.90322 13.21,-13.20999 z m 66.04996,-99.07497 c 13.54025,0 24.81003,8.1324 30.25915,19.815 h 22.58083 c 7.30678,0 13.21,5.90321 13.21,13.20999 0,7.30678 -5.90322,13.20999 -13.21,13.20999 h -22.58083 c -5.44912,11.68259 -16.7189,19.815 -30.25915,19.815 -13.54024,0 -25.18154,-8.13241 -30.25914,-19.815 h -101.8408 c -7.29439,0 -13.20999,-5.90321 -13.20999,-13.20999 0,-7.30678 5.9156,-13.20999 13.20999,-13.20999 h 101.8408 c 5.0776,-11.6826 16.7189,-19.815 30.25914,-19.815 z m 13.21,33.02499 c 0,-7.30678 -5.90322,-13.20999 -13.21,-13.20999 -7.30678,0 -13.20999,5.90321 -13.20999,13.20999 0,7.30678 5.90321,13.20999 13.20999,13.20999 7.30678,0 13.21,-5.90321 13.21,-13.20999 z m 39.62998,-79.25997 c 7.30678,0 13.21,5.9156 13.21,13.21 0,7.30677 -5.90322,13.21 -13.21,13.21 h -88.6308 c -5.44913,11.68258 -16.7189,19.81498 -30.25914,19.81498 -13.54024,0 -25.18156,-8.1324 -30.25915,-19.81498 h -35.79083 c -7.29439,0 -13.20999,-5.90323 -13.20999,-13.21 0,-7.2944 5.9156,-13.21 13.20999,-13.21 h 35.79083 c 5.07759,-11.66195 16.71891,-19.81499 30.25915,-19.81499 13.54024,0 24.81001,8.15304 30.25914,19.81499 z m -132.09994,13.21 c 0,7.30677 5.90322,13.21 13.21,13.21 7.30678,0 13.20999,-5.90323 13.20999,-13.21 0,-7.2944 -5.90321,-13.21 -13.20999,-13.21 -7.30678,0 -13.21,5.9156 -13.21,13.21 z"
     id="path413-7"
     style="stroke-width:0.412812" />
</svg>
