<?xml version="1.0" encoding="UTF-8" standalone="no"?>
<svg
   viewBox="0 0 448 512"
   version="1.1"
   id="svg338"
   sodipodi:docname="cite.svg"
   inkscape:version="1.2.2 (1:1.2.2+202212051552+b0a8486541)"
   xmlns:inkscape="http://www.inkscape.org/namespaces/inkscape"
   xmlns:sodipodi="http://sodipodi.sourceforge.net/DTD/sodipodi-0.dtd"
   xmlns="http://www.w3.org/2000/svg"
   xmlns:svg="http://www.w3.org/2000/svg">
  <defs
     id="defs342" />
  <sodipodi:namedview
     id="namedview340"
     pagecolor="#ffffff"
     bordercolor="#000000"
     borderopacity="0.25"
     inkscape:showpageshadow="2"
     inkscape:pageopacity="0.0"
     inkscape:pagecheckerboard="0"
     inkscape:deskcolor="#d1d1d1"
     showgrid="false"
     inkscape:zoom="1.0029297"
     inkscape:cx="258.74197"
     inkscape:cy="419.27166"
     inkscape:window-width="1452"
     inkscape:window-height="1224"
     inkscape:window-x="178"
     inkscape:window-y="68"
     inkscape:window-maximized="0"
     inkscape:current-layer="svg338" />
  <!--! Font Awesome Pro 6.2.0 by @fontawesome - https://fontawesome.com License - https://fontawesome.com/license (Commercial License) Copyright 2022 Fonticons, Inc. -->
  <path
     d="m 5.0949522,286.34334 c 0,-16.3828 13.0355678,-29.66053 29.1195928,-29.66053 H 208.93206 c 16.06127,0 29.1196,13.27773 29.1196,29.66053 v 148.30271 c 0,16.35964 -13.05833,29.66055 -29.1196,29.66055 H 34.214545 c -16.084025,0 -29.1195928,-13.30091 -29.1195928,-29.66055 z"
     id="path2"
     inkscape:connector-curvature="0"
     sodipodi:nodetypes="sssssssss"
     style="stroke-width:0.554174"
     inkscape:export-xdpi="170"
     inkscape:export-ydpi="170" />
  <rect
     style="opacity:0.93;fill:#ffffff;fill-opacity:1;stroke:none;stroke-width:0.554174;stroke-opacity:1"
     id="rect817"
     width="197.91451"
     height="17.359585"
     x="21.382177"
     y="271.76443"
     inkscape:export-xdpi="170"
     inkscape:export-ydpi="170" />
  <rect
     style="opacity:0.93;fill:#9a9a9a;fill-opacity:1;stroke:none;stroke-width:0.554174;stroke-opacity:1"
     id="rect817-3-6"
     width="90.99102"
     height="34.82914"
     x="21.027435"
     y="303.02737"
     inkscape:export-xdpi="170"
     inkscape:export-ydpi="170" />
  <rect
     style="opacity:0.93;fill:#ffffff;fill-opacity:1;stroke:none;stroke-width:0.554174;stroke-opacity:1"
     id="rect817-3-6-7"
     width="90.99102"
     height="99.6409"
     x="21.027435"
     y="347.05472"
     inkscape:export-xdpi="170"
     inkscape:export-ydpi="170" />
  <rect
     style="opacity:0.93;fill:#ffffff;fill-opacity:1;stroke:none;stroke-width:0.554174;stroke-opacity:1"
     id="rect817-3-6-7-5"
     width="90.998718"
     height="143.66824"
     x="127.94321"
     y="303.02737"
     inkscape:export-xdpi="170"
     inkscape:export-ydpi="170" />
  <path
     d="m 210.25296,62.423322 c 0,-16.38282 13.03555,-29.660537 29.11957,-29.660537 h 174.71753 c 16.06127,0 29.11961,13.277717 29.11961,29.660537 V 210.72604 c 0,16.35964 -13.05834,29.66056 -29.11961,29.66056 H 239.37253 c -16.08402,0 -29.11957,-13.30092 -29.11957,-29.66056 z"
     id="path2-3"
     inkscape:connector-curvature="0"
     sodipodi:nodetypes="sssssssss"
     style="fill:#4f4f4f;fill-opacity:1;stroke-width:0.554174"
     inkscape:export-xdpi="170"
     inkscape:export-ydpi="170" />
  <rect
     style="opacity:0.93;fill:#ffffff;fill-opacity:1;stroke:none;stroke-width:0.554174;stroke-opacity:1"
     id="rect817-6"
     width="197.91452"
     height="17.359585"
     x="226.54019"
     y="47.844406"
     inkscape:export-xdpi="170"
     inkscape:export-ydpi="170" />
  <rect
     style="opacity:0.93;fill:#b4b4b4;fill-opacity:1;stroke:none;stroke-width:0.554174;stroke-opacity:1"
     id="rect817-3-6-75"
     width="90.99102"
     height="34.82914"
     x="226.18547"
     y="79.107353"
     inkscape:export-xdpi="170"
     inkscape:export-ydpi="170" />
  <rect
     style="opacity:0.93;fill:#ffffff;fill-opacity:1;stroke:none;stroke-width:0.554174;stroke-opacity:1"
     id="rect817-3-6-7-3"
     width="90.99102"
     height="99.6409"
     x="226.18547"
     y="123.13473"
     inkscape:export-xdpi="170"
     inkscape:export-ydpi="170" />
  <rect
     style="opacity:0.93;fill:#ffffff;fill-opacity:1;stroke:none;stroke-width:0.554174;stroke-opacity:1"
     id="rect817-3-6-7-5-5"
     width="90.998718"
     height="143.66824"
     x="333.10117"
     y="79.107353"
     inkscape:export-xdpi="170"
     inkscape:export-ydpi="170" />
  <path
     inkscape:connector-curvature="0"
     d="m 354.03853,305.9823 c -1.37134,1.39346 -3.18505,2.07915 -5.19783,2.07915 -2.0128,0 -3.623,-0.69122 -5.00323,-2.07362 l -16.03149,-16.21841 v 71.37641 c 0,9.7609 -7.93833,17.69481 -17.69478,17.69481 h -24.77272 c -3.90835,0 -7.07792,-3.16518 -7.07792,-7.07795 0,-3.91273 3.16957,-7.0779 7.07792,-7.0779 h 24.77272 c 1.94641,0 3.53896,-1.59253 3.53896,-3.53896 v -71.37641 l -16.23055,16.21288 c -2.76481,2.76482 -7.24382,2.76482 -10.00862,0 -2.76483,-2.76481 -2.76483,-7.24383 0,-10.00862 l 28.11261,-28.31169 c 2.76481,-2.76481 7.24381,-2.76481 10.00862,0 l 28.31167,28.31169 c 2.95947,2.77586 2.95947,7.24381 0.19457,10.00862 z"
     id="path2-0"
     style="stroke-width:0.554174"
     inkscape:export-xdpi="170"
     inkscape:export-ydpi="170" />
</svg>
